<svg width="28" height="28" viewBox="0 0 28 28" fill="none" xmlns="http://www.w3.org/2000/svg">
<g clip-path="url(#clip0_22_116)">
<path d="M14 28C21.732 28 28 21.732 28 14C28 6.26801 21.732 0 14 0C6.26801 0 0 6.26801 0 14C0 21.732 6.26801 28 14 28Z" fill="#F0F0F0"/>
<path d="M7.91309 18.8696L9.13048 27.1294C10.6471 27.6922 12.2875 28.0001 14 28.0001C20.0195 28.0001 25.1511 24.2008 27.1292 18.8696H7.91309Z" fill="black"/>
<path d="M7.91309 9.13046L9.13048 0.87068C10.6471 0.307891 12.2875 0 14 0C20.0195 0 25.1511 3.79925 27.1292 9.13046H7.91309Z" fill="#6DA544"/>
<path d="M0 14.0001C0 20.0196 3.7993 25.1512 9.13046 27.1293V0.87085C3.7993 2.84895 0 7.98055 0 14.0001Z" fill="#A2001D"/>
</g>
<defs>
<clipPath id="clip0_22_116">
<rect width="28" height="28" fill="white"/>
</clipPath>
</defs>
</svg>
