<svg xmlns="http://www.w3.org/2000/svg" width="28" height="28" fill="none"><g clip-path="url(#a)"><path fill="#F0F0F0" d="M14 28c7.732 0 14-6.268 14-14S21.732 0 14 0 0 6.268 0 14s6.268 14 14 14"/><path fill="#000" d="m7.913 18.87 1.217 8.26c1.517.562 3.157.87 4.87.87 6.02 0 11.151-3.8 13.13-9.13z"/><path fill="#6DA544" d="M7.913 9.13 9.13.87A14 14 0 0 1 14 0c6.02 0 11.151 3.8 13.13 9.13z"/><path fill="#A2001D" d="M0 14c0 6.02 3.8 11.151 9.13 13.13V.87C3.8 2.85 0 7.98 0 14"/></g><defs><clipPath id="a"><path fill="#fff" d="M0 0h28v28H0z"/></clipPath></defs></svg>