<svg xmlns="http://www.w3.org/2000/svg" width="28" height="28" fill="none"><g clip-path="url(#a)"><path fill="#F0F0F0" d="M14 28c7.732 0 14-6.268 14-14S21.732 0 14 0 0 6.268 0 14s6.268 14 14 14"/><path fill="#0052B4" d="M2.894 5.476a14 14 0 0 0-2.412 4.872h7.283zM27.518 10.348a14 14 0 0 0-2.412-4.871l-4.871 4.87zM.482 17.652a14 14 0 0 0 2.412 4.871l4.871-4.87zM22.524 2.894A14 14 0 0 0 17.652.482v7.283zM5.477 25.106a14 14 0 0 0 4.87 2.412v-7.283zM10.348.482a14 14 0 0 0-4.872 2.412l4.872 4.871zM17.652 27.518a14 14 0 0 0 4.871-2.412l-4.87-4.871zM20.235 17.652l4.871 4.871c1.1-1.43 1.929-3.08 2.412-4.87z"/><path fill="#D80027" d="M27.882 12.174H15.826V.119a14.1 14.1 0 0 0-3.652 0v12.055H.119a14.1 14.1 0 0 0 0 3.652h12.055v12.055a14.1 14.1 0 0 0 3.652 0V15.827h12.055a14.1 14.1 0 0 0 0-3.652"/><path fill="#D80027" d="M17.652 17.652 23.9 23.9q.432-.431.823-.898l-5.348-5.349zM10.348 17.652 4.1 23.9q.432.43.9.823l5.348-5.35zM10.348 10.348 4.1 4.1a14 14 0 0 0-.823.898l5.348 5.349zM17.652 10.348 23.9 4.1a14 14 0 0 0-.9-.822l-5.348 5.348z"/></g><defs><clipPath id="a"><path fill="#fff" d="M0 0h28v28H0z"/></clipPath></defs></svg>