<svg xmlns="http://www.w3.org/2000/svg" width="119" height="24" fill="none"><path fill="#222" d="M26 5.391h2.796v8.624q0 .916.636 1.557a2.07 2.07 0 0 0 1.523.642h4.863V5.39h2.796v10.81q0 1.139-.822 1.95-.82.798-2 .798h-4.837q-1.365 0-2.49-.655a5.14 5.14 0 0 1-1.802-1.78 4.7 4.7 0 0 1-.663-2.46zM41.661 10.26q0-1.349.663-2.448a5.1 5.1 0 0 1 1.802-1.753 4.8 4.8 0 0 1 2.49-.668h7.659V18.95h-2.796V8.153h-4.862q-.888 0-1.524.628-.636.614-.636 1.505v3.742q0 .89.636 1.531.636.63 1.524.629h3.272v2.76h-3.272q-1.365 0-2.491-.654a5.14 5.14 0 0 1-1.802-1.78 4.7 4.7 0 0 1-.663-2.46zM57.455 8.192q0-1.165.861-1.976a2.88 2.88 0 0 1 2.067-.825h5.724q1.1 0 1.987.537.902.523 1.431 1.426.544.89.544 1.976v.38q0 1.073-.544 1.963a4.1 4.1 0 0 1-1.43 1.413 3.84 3.84 0 0 1-1.988.524h-4.266v-2.748h4.292q.478 0 .809-.34.345-.341.344-.825V9.33q0-.496-.344-.837-.331-.34-.808-.34H60.25v6.961q0 .445.304.76.304.314.742.314h7.804v2.76h-7.804q-1.06 0-1.934-.51a4 4 0 0 1-1.391-1.387 3.7 3.7 0 0 1-.517-1.923zM73.05 17.378q0-.706.503-1.204a1.67 1.67 0 0 1 1.22-.497q.728 0 1.218.497.504.485.504 1.204 0 .72-.504 1.217-.49.485-1.219.485a1.67 1.67 0 0 1-1.219-.498 1.63 1.63 0 0 1-.503-1.204M79.476 10.26q0-1.349.662-2.448A5.1 5.1 0 0 1 81.94 6.06a4.8 4.8 0 0 1 2.491-.668h4.863q1.154 0 1.974.812.822.81.822 1.95v10.953q0 1.347-.676 2.46a4.93 4.93 0 0 1-1.789 1.767 4.8 4.8 0 0 1-2.49.667h-6.771v-2.761h6.73q.915 0 1.55-.628.65-.615.65-1.492V8.153h-4.863q-.887 0-1.523.628-.636.614-.636 1.505v3.755q0 .877.636 1.518.636.63 1.523.629h3.273v2.76h-3.273a4.87 4.87 0 0 1-2.49-.654 5.2 5.2 0 0 1-1.803-1.766 4.7 4.7 0 0 1-.662-2.46zM94.952 1.701q0-.705.503-1.204A1.67 1.67 0 0 1 96.675 0q.715 0 1.218.497.504.498.504 1.204 0 .707-.504 1.204a1.67 1.67 0 0 1-1.219.497q-.715 0-1.219-.497a1.63 1.63 0 0 1-.503-1.204m.318 3.69h2.809V18.95h-2.81zM101.259 4.227q0-1.074.53-1.95A4.1 4.1 0 0 1 103.22.864a3.9 3.9 0 0 1 1.987-.524h3.061v2.748h-3.061q-.477 0-.821.34a1.08 1.08 0 0 0-.332.799V5.39h4.267V8.14h-4.267v10.809h-2.795zM110.189 5.391h1.789V.341h2.795v5.05H119v2.762h-4.227V15.1q0 .445.345.772.357.315.848.315H119v2.76h-3.074a3.96 3.96 0 0 1-1.987-.51 4.16 4.16 0 0 1-1.431-1.387 3.67 3.67 0 0 1-.53-1.936V8.153h-1.789z"/><path fill="#497FFF" d="M7.023 6.735c1.355.334 2.306 1.532 2.306 2.907V11.1H7.848c-1.398 0-2.616-.936-2.955-2.27-.321-1.265.844-2.411 2.13-2.095M11.159 9.642V11.1h1.481c1.397 0 2.615-.936 2.954-2.27.322-1.265-.843-2.411-2.129-2.095-1.355.334-2.306 1.532-2.306 2.907"/><path fill="#497FFF" fill-rule="evenodd" d="M11.159 23.935v-9.387a5.8 5.8 0 0 0 5.183 3.152.907.907 0 0 0 .914-.9c0-.497-.41-.9-.914-.9-1.875 0-3.445-1.28-3.858-3H20v1.26c0 5.049-3.864 9.21-8.841 9.775" clip-rule="evenodd"/><path fill="#497FFF" d="M11.159 0v5.896a4.9 4.9 0 0 1 1.862-.907c2.626-.646 5.004 1.694 4.348 4.278a4.76 4.76 0 0 1-.922 1.833H20V0z"/><path fill="#497FFF" fill-rule="evenodd" d="M20 14.16V12.9h-7.516c.413 1.72 1.983 3 3.858 3 .505 0 .914.403.914.9s-.41.9-.914.9a5.8 5.8 0 0 1-5.183-3.152v9.387C16.136 23.37 20 19.209 20 14.16M9.33 9.642c0-1.375-.952-2.573-2.307-2.907-1.286-.316-2.451.83-2.13 2.095.34 1.334 1.557 2.27 2.955 2.27h1.481zm1.829 1.458V9.642c0-1.375.95-2.573 2.306-2.907 1.286-.316 2.45.83 2.13 2.095-.34 1.334-1.558 2.27-2.955 2.27z" clip-rule="evenodd"/><path fill="#497FFF" d="M9.33 14.548A5.8 5.8 0 0 1 4.145 17.7a.907.907 0 0 1-.914-.9c0-.497.409-.9.914-.9 1.874 0 3.445-1.28 3.858-3H0v1.26c0 5.213 4.12 9.479 9.33 9.818zM4.041 11.1a4.76 4.76 0 0 1-.922-1.833C2.462 6.683 4.84 4.343 7.466 4.989a4.9 4.9 0 0 1 1.863.907V0H0v11.1z"/></svg>