<svg xmlns="http://www.w3.org/2000/svg" width="86" height="15" fill="none"><path fill="#497FFF" stroke="#9BB9FF" stroke-linecap="round" stroke-linejoin="round" stroke-width="1.2" d="m7.863 1.043 1.62 3.62c.044.097.114.272.24.41.097.108.217.194.35.253.17.076.356.089.463.1l3.958.416.223.024-.164.15-2.956 2.653c-.08.071-.225.192-.319.353a1 1 0 0 0-.133.41c-.02.187.026.37.048.474l.826 3.878.046.219-.199-.112-3.447-1.98c-.07-.041-.177-.107-.303-.154l-.132-.038-.107-.018a1 1 0 0 0-.323.018h-.001c-.182.038-.34.137-.434.191l-3.447 1.98q-.114.065-.2.112l.047-.218.826-3.878c.016-.078.046-.2.051-.335l-.003-.137-.017-.109a1 1 0 0 0-.117-.303L4.18 8.91c-.084-.105-.18-.186-.24-.24L.985 6.016l-.165-.15.224-.024L5 5.426c.107-.011.294-.024.465-.1q.201-.09.35-.253c.125-.138.195-.313.239-.41l1.62-3.62q.053-.12.094-.209zM25.4 1.043l1.621 3.62c.044.097.114.272.24.41q.147.163.349.253c.17.076.357.089.464.1l3.958.416.223.024-.165.15-2.956 2.653c-.079.071-.224.192-.318.353a1 1 0 0 0-.134.41c-.02.187.027.37.049.474l.825 3.878.046.219-.198-.112-3.447-1.98c-.07-.041-.177-.107-.303-.154l-.132-.038-.107-.018a1 1 0 0 0-.324.018h0c-.183.038-.34.137-.434.191l-3.448 1.98q-.113.065-.199.112l.046-.218.826-3.878c.017-.078.046-.2.052-.335l-.004-.137-.016-.109a1 1 0 0 0-.118-.303l-.078-.113c-.084-.105-.18-.186-.239-.24l-2.956-2.653-.165-.15.224-.024 3.957-.416c.106-.011.294-.024.464-.1.133-.059.253-.145.35-.253.125-.138.196-.313.24-.41l1.62-3.62.093-.209q.041.09.095.209M42.939 1.043l1.62 3.62c.043.097.114.272.239.41q.149.163.35.253c.17.076.357.089.463.1l3.958.416.223.024-.164.15-2.956 2.653c-.08.071-.225.192-.318.353a1 1 0 0 0-.134.41c-.02.187.026.37.049.474l.825 3.878.046.219-.199-.112-3.447-1.98c-.07-.041-.177-.107-.303-.154l-.131-.038-.108-.018a1 1 0 0 0-.323.018h-.001c-.182.038-.34.137-.434.191l-3.447 1.98q-.113.065-.2.112l.047-.218.826-3.878c.017-.078.046-.2.052-.335l-.004-.137-.017-.109a1 1 0 0 0-.117-.303l-.078-.113c-.084-.105-.18-.186-.24-.24l-2.955-2.653-.165-.15.223-.024 3.957-.416c.107-.011.294-.024.465-.1q.201-.09.35-.253c.125-.138.195-.313.239-.41l1.62-3.62.094-.209zM60.476 1.043l1.62 3.62c.044.097.114.272.24.41.097.108.217.194.35.253.17.076.356.089.463.1l3.958.416.223.024-.164.15-2.956 2.653c-.08.071-.225.192-.319.353a1 1 0 0 0-.134.41c-.02.187.027.37.05.474l.825 3.878.045.219-.198-.112-3.447-1.98c-.07-.041-.177-.107-.303-.154l-.132-.038-.107-.018a1 1 0 0 0-.323.018h-.001c-.182.038-.34.137-.434.191l-3.447 1.98q-.114.065-.2.112l.047-.218.826-3.878c.016-.078.046-.2.051-.335l-.004-.137-.016-.109a1 1 0 0 0-.117-.303l-.078-.113c-.084-.105-.18-.186-.24-.24l-2.956-2.653-.165-.15.224-.024 3.957-.416c.107-.011.294-.024.465-.1a1 1 0 0 0 .35-.253c.125-.138.195-.313.239-.41l1.62-3.62q.053-.12.094-.209zM78.014 1.043l1.62 3.62c.043.097.114.272.24.41q.147.163.349.253c.17.076.357.089.464.1l3.958.416.222.024q-.07.064-.164.15l-2.956 2.653c-.079.071-.224.192-.318.353a1 1 0 0 0-.134.41c-.02.187.027.37.049.474l.825 3.878.046.219-.198-.112-3.447-1.98c-.07-.041-.177-.107-.303-.154l-.132-.038-.108-.018a1 1 0 0 0-.323.018h0c-.183.038-.34.137-.434.191l-3.448 1.98q-.113.065-.199.112l.046-.218.826-3.878c.017-.078.046-.2.052-.335l-.004-.137-.016-.109a1 1 0 0 0-.118-.303l-.078-.113c-.084-.105-.18-.186-.239-.24l-2.956-2.653-.165-.15.224-.024 3.957-.416c.106-.011.294-.024.464-.1.133-.059.253-.145.35-.253.125-.138.196-.313.24-.41l1.62-3.62.093-.209q.041.09.095.209"/></svg>